<mxfile host="app.diagrams.net" modified="2021-07-07T13:05:17.687Z" agent="5.0 (X11)" etag="BdTQUGb_ucznidwkwTdu" version="14.8.4" type="github">
  <diagram id="0e4Jp00zzM7mLS0odbhh" name="Page-1">
    <mxGraphModel dx="1552" dy="1620" grid="1" gridSize="10" guides="1" tooltips="1" connect="1" arrows="1" fold="1" page="1" pageScale="1" pageWidth="850" pageHeight="1100" math="0" shadow="0">
      <root>
        <mxCell id="0" />
        <mxCell id="1" parent="0" />
        <mxCell id="90cAt32pgILxvTnnY0bB-4" style="edgeStyle=orthogonalEdgeStyle;rounded=0;orthogonalLoop=1;jettySize=auto;html=1;entryX=0.5;entryY=0;entryDx=0;entryDy=0;" edge="1" parent="1" source="90cAt32pgILxvTnnY0bB-1" target="90cAt32pgILxvTnnY0bB-3">
          <mxGeometry relative="1" as="geometry" />
        </mxCell>
        <mxCell id="90cAt32pgILxvTnnY0bB-1" value="&lt;div style=&quot;font-family: &amp;#34;droid sans mono&amp;#34; , &amp;#34;monospace&amp;#34; , monospace , &amp;#34;droid sans fallback&amp;#34; ; font-weight: normal ; font-size: 14px ; line-height: 19px&quot;&gt;&lt;div&gt;&lt;span style=&quot;background-color: transparent&quot;&gt;clock_create&lt;/span&gt;&lt;/div&gt;&lt;/div&gt;" style="rounded=1;whiteSpace=wrap;html=1;fillColor=#dae8fc;strokeColor=#6c8ebf;" vertex="1" parent="1">
          <mxGeometry x="-220" y="160" width="120" height="60" as="geometry" />
        </mxCell>
        <mxCell id="90cAt32pgILxvTnnY0bB-7" style="edgeStyle=orthogonalEdgeStyle;rounded=0;orthogonalLoop=1;jettySize=auto;html=1;" edge="1" parent="1" source="90cAt32pgILxvTnnY0bB-3" target="90cAt32pgILxvTnnY0bB-6">
          <mxGeometry relative="1" as="geometry" />
        </mxCell>
        <mxCell id="90cAt32pgILxvTnnY0bB-3" value="&lt;div style=&quot;font-family: &amp;#34;droid sans mono&amp;#34; , &amp;#34;monospace&amp;#34; , monospace , &amp;#34;droid sans fallback&amp;#34; ; font-weight: normal ; font-size: 14px ; line-height: 19px&quot;&gt;&lt;div&gt;&lt;span style=&quot;background-color: transparent&quot;&gt;servo_create&lt;/span&gt;&lt;/div&gt;&lt;/div&gt;" style="rounded=1;whiteSpace=wrap;html=1;fillColor=#fff2cc;strokeColor=#d6b656;" vertex="1" parent="1">
          <mxGeometry x="-220" y="260" width="120" height="60" as="geometry" />
        </mxCell>
        <mxCell id="90cAt32pgILxvTnnY0bB-10" style="edgeStyle=orthogonalEdgeStyle;rounded=0;orthogonalLoop=1;jettySize=auto;html=1;" edge="1" parent="1" source="90cAt32pgILxvTnnY0bB-6" target="90cAt32pgILxvTnnY0bB-9">
          <mxGeometry relative="1" as="geometry" />
        </mxCell>
        <mxCell id="90cAt32pgILxvTnnY0bB-6" value="&lt;div style=&quot;font-family: &amp;#34;droid sans mono&amp;#34; , &amp;#34;monospace&amp;#34; , monospace , &amp;#34;droid sans fallback&amp;#34; ; font-weight: normal ; font-size: 14px ; line-height: 19px&quot;&gt;&lt;div&gt;&lt;span style=&quot;background-color: transparent&quot;&gt;linreg_servo_create&lt;/span&gt;&lt;/div&gt;&lt;/div&gt;" style="rounded=1;whiteSpace=wrap;html=1;fillColor=#f8cecc;strokeColor=#b85450;" vertex="1" parent="1">
          <mxGeometry x="-260" y="380" width="200" height="60" as="geometry" />
        </mxCell>
        <mxCell id="90cAt32pgILxvTnnY0bB-16" style="edgeStyle=orthogonalEdgeStyle;rounded=0;orthogonalLoop=1;jettySize=auto;html=1;" edge="1" parent="1" source="90cAt32pgILxvTnnY0bB-9" target="90cAt32pgILxvTnnY0bB-13">
          <mxGeometry relative="1" as="geometry" />
        </mxCell>
        <mxCell id="90cAt32pgILxvTnnY0bB-9" value="&lt;div style=&quot;font-family: &amp;#34;droid sans mono&amp;#34; , &amp;#34;monospace&amp;#34; , monospace , &amp;#34;droid sans fallback&amp;#34; ; font-weight: normal ; font-size: 14px ; line-height: 19px&quot;&gt;&lt;div&gt;&lt;span style=&quot;background-color: transparent&quot;&gt;linreg_sample&lt;/span&gt;&lt;/div&gt;&lt;/div&gt;" style="rounded=1;whiteSpace=wrap;html=1;fillColor=#e1d5e7;strokeColor=#9673a6;" vertex="1" parent="1">
          <mxGeometry x="-260" y="490" width="200" height="60" as="geometry" />
        </mxCell>
        <mxCell id="90cAt32pgILxvTnnY0bB-17" style="edgeStyle=orthogonalEdgeStyle;rounded=0;orthogonalLoop=1;jettySize=auto;html=1;entryX=0.5;entryY=0;entryDx=0;entryDy=0;" edge="1" parent="1" source="90cAt32pgILxvTnnY0bB-13" target="90cAt32pgILxvTnnY0bB-15">
          <mxGeometry relative="1" as="geometry" />
        </mxCell>
        <mxCell id="90cAt32pgILxvTnnY0bB-13" value="&lt;div style=&quot;font-family: &amp;#34;droid sans mono&amp;#34; , &amp;#34;monospace&amp;#34; , monospace , &amp;#34;droid sans fallback&amp;#34; ; font-weight: normal ; font-size: 14px ; line-height: 19px&quot;&gt;&lt;div&gt;&lt;span style=&quot;background-color: transparent&quot;&gt;update_reference&lt;/span&gt;&lt;/div&gt;&lt;/div&gt;" style="rounded=1;whiteSpace=wrap;html=1;fillColor=#d5e8d4;strokeColor=#82b366;" vertex="1" parent="1">
          <mxGeometry x="-260" y="590" width="200" height="60" as="geometry" />
        </mxCell>
        <mxCell id="90cAt32pgILxvTnnY0bB-19" style="edgeStyle=orthogonalEdgeStyle;rounded=0;orthogonalLoop=1;jettySize=auto;html=1;entryX=0.5;entryY=0;entryDx=0;entryDy=0;" edge="1" parent="1" source="90cAt32pgILxvTnnY0bB-15" target="90cAt32pgILxvTnnY0bB-18">
          <mxGeometry relative="1" as="geometry" />
        </mxCell>
        <mxCell id="90cAt32pgILxvTnnY0bB-15" value="&lt;div&gt;&lt;div style=&quot;font-family: &amp;#34;droid sans mono&amp;#34; , &amp;#34;monospace&amp;#34; , monospace , &amp;#34;droid sans fallback&amp;#34; ; font-weight: normal ; font-size: 14px ; line-height: 19px&quot;&gt;&lt;div&gt;&lt;span style=&quot;background-color: transparent&quot;&gt;move_reference&lt;/span&gt;&lt;/div&gt;&lt;/div&gt;&lt;/div&gt;" style="rounded=1;whiteSpace=wrap;html=1;fillColor=#ffe6cc;strokeColor=#d79b00;" vertex="1" parent="1">
          <mxGeometry x="-260" y="690" width="200" height="60" as="geometry" />
        </mxCell>
        <mxCell id="90cAt32pgILxvTnnY0bB-21" style="edgeStyle=orthogonalEdgeStyle;rounded=0;orthogonalLoop=1;jettySize=auto;html=1;entryX=0.5;entryY=0;entryDx=0;entryDy=0;" edge="1" parent="1" source="90cAt32pgILxvTnnY0bB-18" target="90cAt32pgILxvTnnY0bB-20">
          <mxGeometry relative="1" as="geometry" />
        </mxCell>
        <mxCell id="90cAt32pgILxvTnnY0bB-18" value="&lt;div style=&quot;font-family: &amp;#34;droid sans mono&amp;#34; , &amp;#34;monospace&amp;#34; , monospace , &amp;#34;droid sans fallback&amp;#34; ; font-weight: normal ; font-size: 14px ; line-height: 19px&quot;&gt;&lt;div&gt;&lt;span style=&quot;background-color: transparent&quot;&gt;add_sample&lt;/span&gt;&lt;/div&gt;&lt;/div&gt;" style="rounded=1;whiteSpace=wrap;html=1;fillColor=#f8cecc;strokeColor=#b85450;" vertex="1" parent="1">
          <mxGeometry x="-260" y="810" width="200" height="60" as="geometry" />
        </mxCell>
        <mxCell id="90cAt32pgILxvTnnY0bB-24" style="edgeStyle=orthogonalEdgeStyle;rounded=0;orthogonalLoop=1;jettySize=auto;html=1;exitX=0.5;exitY=1;exitDx=0;exitDy=0;" edge="1" parent="1" source="90cAt32pgILxvTnnY0bB-20" target="90cAt32pgILxvTnnY0bB-22">
          <mxGeometry relative="1" as="geometry" />
        </mxCell>
        <mxCell id="90cAt32pgILxvTnnY0bB-20" value="&lt;div style=&quot;font-family: &amp;#34;droid sans mono&amp;#34; , &amp;#34;monospace&amp;#34; , monospace , &amp;#34;droid sans fallback&amp;#34; ; font-weight: normal ; font-size: 14px ; line-height: 19px&quot;&gt;&lt;div&gt;&lt;span style=&quot;background-color: transparent&quot;&gt;regress&lt;/span&gt;&lt;/div&gt;&lt;/div&gt;" style="rounded=1;whiteSpace=wrap;html=1;fillColor=#fff2cc;strokeColor=#d6b656;" vertex="1" parent="1">
          <mxGeometry x="80" y="320" width="120" height="60" as="geometry" />
        </mxCell>
        <mxCell id="90cAt32pgILxvTnnY0bB-22" value="&lt;div style=&quot;font-family: &amp;#34;droid sans mono&amp;#34; , &amp;#34;monospace&amp;#34; , monospace , &amp;#34;droid sans fallback&amp;#34; ; font-weight: normal ; font-size: 14px ; line-height: 19px&quot;&gt;&lt;div&gt;&lt;span style=&quot;background-color: transparent&quot;&gt;update_size&lt;/span&gt;&lt;/div&gt;&lt;/div&gt;" style="rounded=1;whiteSpace=wrap;html=1;fillColor=#e1d5e7;strokeColor=#9673a6;" vertex="1" parent="1">
          <mxGeometry x="80" y="460" width="120" height="60" as="geometry" />
        </mxCell>
      </root>
    </mxGraphModel>
  </diagram>
</mxfile>
